<svg width="24" height="24" viewBox="0 0 24 24" xmlns="http://www.w3.org/2000/svg">
    <defs>
        <filter color-interpolation-filters="auto" id="a">
            <feColorMatrix in="SourceGraphic" values="0 0 0 0 0.501961 0 0 0 0 0.505882 0 0 0 0 0.556863 0 0 0 1.000000 0"/>
        </filter>
    </defs>
    <g transform="translate(-124 -12)" filter="url(#a)" fill="none" fill-rule="evenodd">
        <path d="m144.609 17.503-4.641-4.641a2.924 2.924 0 0 0-2.081-.862h-7.812A4.075 4.075 0 0 0 126 16.075v15.85A4.075 4.075 0 0 0 130.075 36h11.321a4.075 4.075 0 0 0 4.076-4.075v-12.34a2.923 2.923 0 0 0-.863-2.082zM144 31.997c0 1.41-1.162 2.553-2.595 2.553h-11.172c-1.433 0-2.594-1.143-2.594-2.553V16.16c0-1.41 1.161-2.553 2.594-2.553h7.821c.401 0 .786.156 1.07.436l4.433 4.361c.282.28.442.659.443 1.054v12.539zm-12.168-8.945v1.885h-.92a.68.68 0 1 0 0 1.359h.92v.608a.68.68 0 1 0 1.359 0v-.612a2.296 2.296 0 0 0 0-4.59v-1.89h.97a.68.68 0 1 0 0-1.36h-.97v-.607a.68.68 0 1 0-1.359 0v.608a2.298 2.298 0 0 0 0 4.595v.004zm1.359.01a.935.935 0 0 1 0 1.87v-1.87zm-1.359-3.25v1.88a.937.937 0 1 1 0-1.875v-.006zm5.406 4.585a.68.68 0 0 1 .68-.679h2.582a.68.68 0 1 1 0 1.359h-2.583a.68.68 0 0 1-.679-.675v-.005zm0-4.056a.68.68 0 0 1 .68-.68h2.582a.68.68 0 1 1 0 1.36h-2.583a.68.68 0 0 1-.679-.675v-.005zm4.376 9.808a.68.68 0 0 1-.68.68h-10.397a.68.68 0 1 1 0-1.359h10.398a.68.68 0 0 1 .679.68v.005-.006z" fill="#24283B" fill-rule="nonzero"/>
    </g>
</svg>
