<svg xmlns="http://www.w3.org/2000/svg" width="48" height="48" viewBox="0 0 48 48">
    <g fill="none" fill-rule="evenodd">
        <g fill="#FFF" fill-rule="nonzero">
            <g>
                <g>
                    <path d="M24 34.56c.53 0 .96-.43.96-.96v-7.68c0-.53-.43-.96-.96-.96s-.96.43-.96.96v7.68c0 .53.43.96.96.96zM17.28 34.56c.53 0 .96-.43.96-.96v-7.68c0-.53-.43-.96-.96-.96s-.96.43-.96.96v7.68c0 .53.43.96.96.96zM30.72 34.56c.53 0 .96-.43.96-.96v-7.68c0-.53-.43-.96-.96-.96s-.96.43-.96.96v7.68c0 .53.43.96.96.96z" transform="translate(-64 -400) translate(24 376) translate(40 24)"/>
                    <path d="M42.24 14.4h-8.097l-5.48-9.133c-.272-.454-.861-.605-1.316-.33-.455.272-.601.861-.329 1.316l4.887 8.147h-15.81l4.889-8.147c.272-.453.124-1.044-.329-1.317-.457-.276-1.044-.123-1.317.33L13.857 14.4H5.76c-.53 0-.96.43-.96.96v5.76c0 .53.43.96.96.96h1.217l6.507 20.45c.127.4.497.67.916.67h19.2c.419 0 .79-.27.916-.67l6.507-20.45h1.217c.53 0 .96-.43.96-.96v-5.76c0-.53-.43-.96-.96-.96zm-9.343 26.88H15.103l-6.11-19.2H39.01l-6.112 19.2zm8.383-21.12H6.72v-3.84h34.56v3.84z" transform="translate(-64 -400) translate(24 376) translate(40 24)"/>
                </g>
            </g>
        </g>
    </g>
</svg>
